<?xml version="1.0" encoding="iso-8859-1"?>
<!DOCTYPE svg PUBLIC "-//W3C//DTD SVG 1.1 Basic//EN" "http://www.w3.org/Graphics/SVG/1.1/DTD/svg11-basic.dtd">
<svg version="1.1" baseProfile="basic"
   xmlns="http://www.w3.org/2000/svg" xmlns:xlink="http://www.w3.org/1999/xlink" x="0px" y="0px" width="512px" height="512px"
   viewBox="0 0 512 512" xml:space="preserve">
  <path transform="matrix(0.512,0,0,0.512,11,0)" stroke="none" style="fill:#000000" d="M 907 111 C 844 28 795 9 716 1 C 708 0 700 0 691 0 C 635 0 581 17 556 27 C 543 19 522 11 501 11 C 493 11 485 12 478 14 C 472 13 463 12 453 12 C 422 12 403 22 391 34 C 369 27 331 18 287 18 C 266 18 245 21 226 25 C 146 43 24 157 8 228 C 0 264 16 283 27 292 C 54 313 80 322 99 329 C 123 338 123 339 123 344 C 127 379 151 401 186 401 C 189 401 192 401 195 401 C 196 401 197 402 197 402 C 197 405 198 407 199 409 L 199 410 C 207 433 219 464 237 490 C 242 506 263 574 282 600 C 298 623 302 659 302 660 C 308 712 318 798 318 808 C 318 817 319 830 320 840 C 310 849 299 866 301 899 C 303 941 337 974 377 974 C 384 974 391 973 398 971 C 402 971 406 972 410 972 C 417 972 427 971 437 963 C 438 965 438 966 439 968 C 451 994 494 1000 529 1000 C 558 1000 583 991 597 975 C 605 966 608 957 608 947 C 606 934 597 925 588 917 C 585 914 579 908 578 906 C 578 898 574 891 571 885 C 567 877 564 870 564 862 C 573 857 582 851 589 843 C 606 826 614 802 612 777 C 612 767 607 759 598 755 L 597 754 C 610 692 622 614 625 579 C 625 572 627 557 635 532 C 640 533 644 534 650 534 C 650 534 652 535 652 535 C 663 535 673 528 677 518 C 681 507 678 495 669 487 C 669 487 663 482 654 473 C 656 467 659 461 661 455 C 669 463 678 469 689 469 C 697 469 705 466 712 461 C 714 458 719 455 724 451 C 769 418 818 380 831 345 C 838 326 838 326 853 317 C 859 314 866 309 877 302 C 902 285 912 269 910 248 C 910 248 911 247 912 247 C 955 212 954 173 907 111 z M 455 843 C 453 834 452 822 452 803 C 453 793 454 782 455 772 C 458 785 462 798 466 810 C 465 811 464 813 464 814 C 461 824 458 834 455 843 z M 397 951 C 390 954 383 955 377 955 C 348 955 322 932 320 898 C 318 856 339 849 339 849 C 339 849 337 823 337 808 C 337 793 321 657 321 657 C 321 657 317 617 297 589 C 278 562 254 482 254 482 C 242 464 232 443 225 424 C 230 429 234 434 238 438 C 255 459 272 481 298 481 C 309 481 320 477 330 468 C 347 452 348 436 348 426 C 348 420 348 418 352 412 C 355 407 358 403 361 399 C 355 436 336 500 300 519 C 289 524 283 536 286 548 C 289 560 299 568 311 569 L 311 569 C 319 569 379 567 411 512 C 411 511 412 510 413 509 C 414 528 422 566 431 611 C 438 644 446 686 447 698 C 447 699 447 707 448 719 C 441 745 434 775 433 803 C 432 849 442 859 447 876 C 447 881 446 885 446 889 L 446 913 C 441 921 436 932 435 944 C 427 951 418 953 410 953 C 403 953 397 951 397 951 z M 559 908 C 560 924 588 936 589 949 C 590 961 568 981 529 981 C 489 981 462 973 456 960 C 447 940 465 919 465 919 C 465 919 465 919 465 889 C 465 877 471 856 477 835 C 486 850 497 861 511 865 C 518 868 525 869 533 869 C 537 869 541 868 545 867 C 547 886 558 898 559 908 z M 606 578 C 604 610 593 683 579 745 L 574 742 C 574 740 574 739 574 737 L 575 736 C 575 722 575 705 575 688 C 574 664 572 622 571 581 L 571 579 C 569 546 568 513 567 490 C 580 504 597 518 617 526 C 611 546 607 565 606 578 z M 640 456 C 627 439 612 414 606 384 C 606 382 605 379 603 376 C 603 376 604 374 605 372 C 606 372 606 371 606 370 C 613 380 620 387 627 392 C 634 397 635 403 635 404 L 635 404 C 635 406 635 409 636 411 C 639 418 642 428 648 437 C 645 443 643 449 640 456 z M 900 232 C 898 234 896 235 894 237 C 889 241 890 242 891 247 C 893 258 892 269 866 286 C 856 293 849 297 843 301 C 825 312 823 313 814 338 C 801 371 744 413 713 436 C 707 440 703 444 700 446 C 697 448 693 450 689 450 C 671 450 658 415 654 405 C 654 404 654 403 654 403 C 654 402 653 388 638 377 C 625 368 614 348 608 332 C 606 339 602 344 597 351 C 595 354 592 357 589 362 C 580 375 586 385 587 385 C 587 386 588 387 588 388 C 601 457 657 502 657 502 C 660 504 661 508 659 511 C 658 514 655 516 652 516 C 652 516 652 516 652 516 C 597 510 566 461 553 432 C 550 442 548 454 548 469 C 548 488 550 535 552 580 C 553 621 555 664 556 688 C 556 705 556 721 556 735 C 556 742 555 749 555 756 C 556 756 557 756 558 756 C 559 756 560 756 561 756 L 590 772 C 592 773 593 775 594 778 C 595 798 589 817 576 830 C 564 843 549 850 533 850 C 527 850 522 849 516 847 C 471 833 466 698 466 697 C 465 684 457 645 449 607 C 440 563 432 522 431 505 C 431 489 423 466 417 449 C 413 463 406 481 394 502 C 368 548 318 550 312 550 C 312 550 312 550 312 550 C 308 550 305 547 304 544 C 304 541 305 537 308 535 C 366 506 380 400 381 393 C 381 389 381 363 380 353 C 380 349 378 341 376 333 C 374 337 373 341 372 345 C 370 355 363 365 353 378 C 348 385 342 393 336 401 C 329 412 329 419 329 426 C 329 434 329 444 317 454 C 311 460 304 462 298 462 C 282 462 270 448 253 426 C 236 405 208 386 199 381 C 196 382 191 382 186 382 C 161 382 145 368 142 342 C 140 325 130 320 105 311 C 87 305 63 296 39 277 C 30 270 21 257 26 232 C 41 167 157 60 230 44 C 248 39 267 37 287 37 C 287 37 287 37 287 37 C 339 37 382 51 398 56 C 408 40 426 31 453 31 C 465 31 475 33 480 34 C 486 31 493 30 501 30 C 501 30 501 30 501 30 C 524 30 546 42 554 48 C 570 41 630 18 691 18 C 699 18 707 19 714 20 C 789 27 833 44 892 122 C 942 189 924 212 900 232 z M 386 201 C 381 202 380 211 383 220 C 386 229 393 235 398 233 C 403 232 405 223 401 214 C 398 205 391 199 386 201 z M 571 202 C 576 204 577 213 574 222 C 571 231 564 237 559 235 C 554 233 553 225 556 216 C 559 206 566 201 571 202"/>
</svg>