<?xml version="1.0" encoding="iso-8859-1"?>
<!DOCTYPE svg PUBLIC "-//W3C//DTD SVG 1.1 Basic//EN" "http://www.w3.org/Graphics/SVG/1.1/DTD/svg11-basic.dtd">
<svg version="1.1" baseProfile="basic"
   xmlns="http://www.w3.org/2000/svg" xmlns:xlink="http://www.w3.org/1999/xlink" x="0px" y="0px" width="512px" height="512px"
   viewBox="0 0 512 512" xml:space="preserve">
  <path transform="matrix(0.512,0,0,0.512,0,4)" stroke="none" style="fill:#000000" d="M 493 652 L 506 652 C 628 652 726 552 726 430 L 726 328 C 726 294 718 262 705 234 L 294 234 C 280 262 273 294 273 328 L 273 430 C 273 552 371 652 493 652 z M 997 970 C 969 811 854 682 701 636 C 760 583 797 505 797 419 L 797 318 C 797 208 761 149 759 147 C 708 56 612 0 508 0 L 491 0 C 387 0 291 56 240 146 C 239 149 202 207 202 318 L 202 419 C 202 505 239 583 298 636 C 203 664 123 725 69 805 L 68 805 L 68 807 C 35 855 12 910 2 970 L 0 983 L 261 983 L 738 983 L 1000 983 L 997 970 z M 224 419 L 224 318 C 224 214 258 159 259 158 C 306 74 395 21 491 21 L 508 21 C 604 21 693 74 741 158 C 741 159 775 215 775 318 L 775 419 C 775 508 733 586 667 635 C 663 638 659 642 654 645 C 652 646 650 647 648 648 C 642 652 635 656 629 659 C 624 662 619 664 614 667 C 611 668 608 669 606 670 C 601 672 596 674 591 675 C 588 676 585 677 582 678 C 577 679 572 681 566 682 C 564 682 561 683 558 684 C 552 685 547 686 541 686 C 538 687 536 687 533 687 C 525 688 517 689 508 689 L 491 689 C 491 689 491 689 491 689 C 482 689 474 688 466 687 C 463 687 461 687 458 686 C 452 686 447 685 441 684 C 438 683 435 683 433 682 C 427 681 422 679 417 678 C 414 677 411 676 408 675 C 403 674 398 672 393 670 C 391 669 388 668 385 667 C 381 665 376 662 371 660 C 364 656 357 652 350 648 C 349 647 347 646 345 645 C 340 642 336 638 331 635 C 266 586 224 507 224 419 z M 376 961 L 283 961 L 283 764 L 376 764 L 376 961 z M 524 903 L 448 903 L 448 827 L 524 827 L 524 903 z M 654 903 L 578 903 L 578 827 L 654 827 L 654 903 z M 738 961 L 738 742 L 261 742 L 261 961 L 26 961 C 28 949 31 937 35 925 L 167 925 L 167 881 L 51 881 C 56 870 62 859 68 848 L 68 848 L 167 848 L 167 805 L 95 805 C 149 731 227 676 319 653 C 320 653 321 654 322 655 C 326 658 331 661 335 664 C 338 666 341 668 344 669 C 348 672 352 675 356 677 C 362 680 367 682 373 685 C 375 686 378 687 381 688 C 388 691 396 694 403 696 C 405 697 408 698 410 699 C 416 700 422 702 429 703 C 431 704 434 705 437 705 C 443 706 450 707 456 708 C 459 708 461 709 464 709 C 473 710 482 710 491 710 C 491 710 491 710 491 710 L 491 710 L 508 710 L 508 710 C 517 710 526 710 535 709 C 538 709 540 708 543 708 C 549 707 556 706 562 705 C 565 705 568 704 570 703 C 577 702 583 700 589 699 C 591 698 594 697 596 697 C 604 694 611 691 619 688 C 621 687 623 686 625 685 C 631 682 637 680 643 677 C 647 675 651 672 655 670 C 658 668 661 666 664 664 C 668 661 673 658 677 655 C 678 654 679 654 680 653 C 829 691 942 811 973 961 L 738 961 z M 830 419 C 830 493 804 565 758 622 C 822 649 878 690 922 740 L 922 234 L 822 234 C 827 258 830 286 830 318 L 830 419 z M 241 622 C 195 565 169 493 169 419 L 169 318 C 169 285 172 258 177 234 L 77 234 L 77 741 C 122 690 178 649 241 622 z"/>
</svg>