<?xml version="1.0" encoding="iso-8859-1"?>
<!DOCTYPE svg PUBLIC "-//W3C//DTD SVG 1.1 Basic//EN" "http://www.w3.org/Graphics/SVG/1.1/DTD/svg11-basic.dtd">
<svg version="1.1" baseProfile="basic"
   xmlns="http://www.w3.org/2000/svg" xmlns:xlink="http://www.w3.org/1999/xlink" x="0px" y="0px" width="512px" height="512px"
   viewBox="0 0 512 512" xml:space="preserve">
  <path transform="matrix(0.512,0,0,0.512,0,0)" stroke="none" style="fill:#000000" d="M 777 385 C 777 367 762 353 744 353 C 728 353 715 364 712 379 L 705 379 C 705 358 693 337 667 337 C 640 337 628 354 628 375 L 628 379 L 621 379 L 621 358 C 621 337 604 320 583 320 C 562 320 545 337 545 358 L 545 379 L 538 379 L 538 143 C 538 122 521 105 500 105 C 479 105 462 122 462 143 L 462 480 C 457 488 458 494 452 497 L 452 387 C 452 366 435 349 414 349 C 392 349 375 366 375 387 L 375 462 C 375 540 385 658 388 671 C 407 736 449 815 509 841 L 509 1000 L 741 1000 L 741 840 C 764 807 795 711 795 621 C 795 541 784 490 780 448 L 777 385 z M 583 128 C 583 82 546 45 500 45 C 454 45 416 82 416 128 C 416 156 430 180 451 195 L 451 143 C 451 116 473 94 500 94 C 527 94 549 116 549 143 L 549 195 C 570 180 583 156 583 128 z M 1000 128 L 837 12 L 837 85 L 621 85 C 603 35 556 0 500 0 C 445 0 398 33 380 81 L 162 81 L 162 8 L 0 124 L 162 240 L 162 167 L 377 167 C 389 203 416 232 451 247 L 451 229 C 413 210 387 172 387 128 C 387 66 438 16 500 16 C 562 16 612 66 612 128 C 612 172 586 210 549 229 L 549 247 C 582 233 609 205 621 171 L 837 171 L 837 244 L 1000 128 z"/>
</svg>