<svg version="1.1" baseProfile="basic"
   xmlns="http://www.w3.org/2000/svg" xmlns:xlink="http://www.w3.org/1999/xlink" x="0px" y="0px" width="24px" height="24px"
   viewBox="0 0 128 128" xml:space="preserve">
  <path transform="matrix(0.12812812812812813,0,0,0.12812812812812813,0,0)" stroke="none" style="fill:#FFFFFF" d="M 341 902 C 341 902 342 902 342 902 L 858 385 L 872 371 L 627 126 L 613 139 L 96 656 C 96 656 96 656 96 657 C 94 658 93 660 92 662 C 92 662 92 663 92 663 C 91 664 91 664 91 664 L 2 972 C 0 979 1 986 6 991 C 12 996 19 998 26 996 L 333 907 C 334 907 334 906 334 906 C 335 906 335 906 336 905 C 338 905 340 903 341 902 z M 776 330 L 287 819 L 268 801 L 259 792 L 749 303 L 776 330 z M 668 221 L 695 249 L 206 738 L 178 711 L 668 221 z M 111 931 L 67 887 L 119 707 L 291 878 L 111 931 z M 900 344 L 654 98 L 753 0 L 998 245 L 900 344 z"/>
</svg>
